<svg width="123" height="123" viewBox="0 0 123 123" fill="none" xmlns="http://www.w3.org/2000/svg">
<rect x="25.8819" width="100" height="100" rx="20" transform="rotate(15 25.8819 0)" fill="#FFE8C8" fill-opacity="0.5"/>
<rect x="11.0001" y="11" width="100" height="100" rx="20" fill="#FFE8C8"/>
<g clip-path="url(#clip0_319_41530)">
<path d="M52.504 86.6998H33.8126C32.8741 86.6998 32.1133 85.939 32.1133 85.0005V64.6099C32.1133 63.6715 32.8741 62.9107 33.8126 62.9107H52.504C53.4424 62.9107 54.2032 63.6715 54.2032 64.6099V85.0005C54.2032 85.939 53.4424 86.6998 52.504 86.6998Z" fill="#FB9333"/>
<path d="M52.504 62.9107H42.3087V86.6998H52.504C53.4424 86.6998 54.2032 85.939 54.2032 85.0005V64.6099C54.2032 63.6715 53.4424 62.9107 52.504 62.9107Z" fill="#FB9333"/>
<path d="M84.4676 42.3521L79.918 40.5396L74.9153 42.3521L73.4726 54.6146C73.416 55.0965 73.568 55.5796 73.8904 55.9422C74.2128 56.3048 74.675 56.5123 75.1602 56.5123H84.2227C84.7079 56.5123 85.1699 56.3048 85.4924 55.9422C85.815 55.5796 85.9669 55.0965 85.9102 54.6146L84.4676 42.3521Z" fill="#FB9333"/>
<path d="M85.9099 54.6146L84.4673 42.3521L79.9177 40.5396L79.6911 40.6217V56.5123H84.2224C84.7075 56.5123 85.1696 56.3048 85.4921 55.9422C85.8146 55.5796 85.9666 55.0964 85.9099 54.6146Z" fill="#FB9333"/>
<path d="M56.4804 54.6146C56.4238 55.0965 56.5758 55.5796 56.8982 55.9422C57.2206 56.3048 57.6828 56.5123 58.168 56.5123H67.2305C67.7157 56.5123 68.1778 56.3048 68.5003 55.9422C68.8228 55.5796 68.9747 55.0965 68.918 54.6146L67.4754 42.3521L62.8125 39.6334L57.9231 42.3521L56.4804 54.6146Z" fill="#FB9333"/>
<path d="M68.9177 54.6146L67.4751 42.3521L62.8122 39.6334L62.6989 39.6963V56.5123H67.2302C67.7153 56.5123 68.1774 56.3048 68.4999 55.9422C68.8224 55.5796 68.9744 55.0964 68.9177 54.6146Z" fill="#FB9333"/>
<path d="M83.6447 35.3568C83.5441 34.5009 82.8188 33.856 81.9572 33.856H77.4259C76.5643 33.856 75.839 34.5009 75.7384 35.3568L74.9154 42.3521H84.4678L83.6447 35.3568Z" fill="#FFAC37"/>
<path d="M83.6443 35.3568C83.5437 34.5009 82.8183 33.856 81.9567 33.856H79.6911V42.3521H84.4673L83.6443 35.3568Z" fill="#FFAC37"/>
<path d="M64.965 33.856H60.4338C59.5721 33.856 58.8468 34.5009 58.7462 35.3568L57.9232 42.3521H67.4757L66.6527 35.3568C66.552 34.5009 65.8266 33.856 64.965 33.856Z" fill="#FFAC37"/>
<path d="M66.6521 35.3568C66.5515 34.5009 65.8262 33.856 64.9645 33.856H62.6989V42.3521H67.4751L66.6521 35.3568Z" fill="#FFAC37"/>
<path d="M38.9102 76.5045C37.9718 76.5045 37.211 75.7437 37.211 74.8052V71.4068C37.211 70.4684 37.9718 69.7076 38.9102 69.7076C39.8486 69.7076 40.6094 70.4684 40.6094 71.4068V74.8052C40.6094 75.7437 39.8486 76.5045 38.9102 76.5045Z" fill="#FFF8EE"/>
<path d="M45.7071 76.5045C44.7687 76.5045 44.0079 75.7437 44.0079 74.8052V71.4068C44.0079 70.4684 44.7687 69.7076 45.7071 69.7076C46.6455 69.7076 47.4063 70.4684 47.4063 71.4068V74.8052C47.4063 75.7437 46.6455 76.5045 45.7071 76.5045Z" fill="white"/>
<path d="M76.293 86.6998H88.1876C89.126 86.6998 89.8868 85.939 89.8868 85.0005V57.813C89.8868 56.8746 89.126 56.1138 88.1876 56.1138H54.2032C53.2648 56.1138 52.504 56.8746 52.504 57.813V86.6998H66.0977L70.9688 85.7935L76.293 86.6998Z" fill="#FFAC37"/>
<path d="M88.1876 56.1138H71.1954V85.832L76.293 86.6998H88.1876C89.126 86.6998 89.8868 85.939 89.8868 85.0005V57.813C89.8868 56.8746 89.126 56.1138 88.1876 56.1138Z" fill="#FFAC37"/>
<path d="M61.0001 79.9029C60.0616 79.9029 59.3008 79.1421 59.3008 78.2037V74.8052C59.3008 73.8668 60.0616 73.106 61.0001 73.106C61.9385 73.106 62.6993 73.8668 62.6993 74.8052V78.2037C62.6993 79.1421 61.9385 79.9029 61.0001 79.9029Z" fill="#FFF8EE"/>
<path d="M61.0001 69.7076C60.0616 69.7076 59.3008 68.9468 59.3008 68.0084V64.6099C59.3008 63.6715 60.0616 62.9107 61.0001 62.9107C61.9385 62.9107 62.6993 63.6715 62.6993 64.6099V68.0084C62.6993 68.9468 61.9385 69.7076 61.0001 69.7076Z" fill="#FFF8EE"/>
<path d="M81.3907 79.9029C80.4523 79.9029 79.6915 79.1421 79.6915 78.2037V74.8052C79.6915 73.8668 80.4523 73.106 81.3907 73.106C82.3291 73.106 83.0899 73.8668 83.0899 74.8052V78.2037C83.0899 79.1421 82.3291 79.9029 81.3907 79.9029Z" fill="white"/>
<path d="M81.3907 69.7076C80.4523 69.7076 79.6915 68.9468 79.6915 68.0084V64.6099C79.6915 63.6715 80.4523 62.9107 81.3907 62.9107C82.3291 62.9107 83.0899 63.6715 83.0899 64.6099V68.0084C83.0899 68.9468 82.3291 69.7076 81.3907 69.7076Z" fill="white"/>
<path d="M67.7969 69.7076C66.8585 69.7076 66.0977 68.9468 66.0977 68.0084V64.6099C66.0977 63.6715 66.8585 62.9107 67.7969 62.9107C68.7354 62.9107 69.4962 63.6715 69.4962 64.6099V68.0084C69.4962 68.9468 68.7354 69.7076 67.7969 69.7076Z" fill="#FFF8EE"/>
<path d="M74.5938 69.7076C73.6554 69.7076 72.8946 68.9468 72.8946 68.0084V64.6099C72.8946 63.6715 73.6554 62.9107 74.5938 62.9107C75.5322 62.9107 76.293 63.6715 76.293 64.6099V68.0084C76.293 68.9468 75.5322 69.7076 74.5938 69.7076Z" fill="white"/>
<path d="M74.5938 73.106H67.7969C66.8585 73.106 66.0977 73.8668 66.0977 74.8052V86.6998H69.4962L71.0821 85.567L72.8946 86.6998H76.293V74.8052C76.293 73.8668 75.5322 73.106 74.5938 73.106Z" fill="#FFF8EE"/>
<path d="M74.5938 73.106H71.1954V85.6378L72.8946 86.6998H76.293V74.8052C76.293 73.8668 75.5322 73.106 74.5938 73.106Z" fill="white"/>
<path d="M69.4962 76.5045H72.8946V86.6998H69.4962V76.5045Z" fill="#FFAC37"/>
<path d="M71.1954 76.5045H72.8946V86.6998H71.1954V76.5045Z" fill="#FFAC37"/>
</g>
<defs>
<clipPath id="clip0_319_41530">
<rect width="58" height="58" fill="white" transform="translate(32.0001 29)"/>
</clipPath>
</defs>
</svg>
