<svg width="124" height="123" viewBox="0 0 124 123" fill="none" xmlns="http://www.w3.org/2000/svg">
<rect x="26.5486" width="100" height="100" rx="20" transform="rotate(15 26.5486 0)" fill="#FFE8C8" fill-opacity="0.5"/>
<rect x="11.6667" y="11" width="100" height="100" rx="20" fill="#FFE8C8"/>
<g clip-path="url(#clip0_319_41533)">
<path d="M52.1792 59.498C44.5275 58.7794 38.6667 52.4347 38.6667 44.7383V42.043C38.6667 39.8136 40.4803 38 42.7097 38C44.9391 38 46.7527 39.8136 46.7527 42.043C46.7527 42.7865 47.3568 43.3906 48.1003 43.3906H50.8855C51.6304 43.3906 52.2332 43.9934 52.2332 44.7383C52.2332 45.4832 51.6304 46.0859 50.8855 46.0859H48.1003C45.871 46.0859 44.0574 44.2724 44.0574 42.043C44.0574 41.2994 43.4533 40.6953 42.7097 40.6953C41.9662 40.6953 41.3621 41.2994 41.3621 42.043V44.7383C41.3621 51.0357 46.1727 56.2262 52.4319 56.8132C53.1728 56.8829 53.7164 57.541 53.6479 58.282C53.5782 59.0206 52.9241 59.5657 52.1792 59.498Z" fill="#FB9333"/>
<path d="M69.7752 58.282C69.7068 57.541 70.2503 56.883 70.9913 56.8132C77.2505 56.2262 81.9712 51.0357 81.9712 44.7383V42.043C81.9712 41.2994 81.3671 40.6953 80.6236 40.6953C79.88 40.6953 79.2759 41.2994 79.2759 42.043C79.2759 44.2724 77.4624 46.0859 75.233 46.0859H72.5377C71.7928 46.0859 71.19 45.4832 71.19 44.7383C71.19 43.9934 71.7928 43.3906 72.5377 43.3906H75.233C75.9765 43.3906 76.5806 42.7865 76.5806 42.043C76.5806 39.8136 78.3942 38 80.6236 38C82.853 38 84.6666 39.8136 84.6666 42.043V44.7383C84.6666 52.4347 78.8956 58.7794 71.244 59.498C70.4991 59.5657 69.8449 59.0206 69.7752 58.282Z" fill="#FB9333"/>
<path d="M72.5378 38H61.6667H50.8855C50.1406 38 49.5378 38.6028 49.5378 39.3477V52.8242C49.5378 57.9767 52.8135 62.5223 57.6238 64.2201V74.5664H61.6667H65.7097V64.2201C70.52 62.5224 73.8855 57.9767 73.8855 52.8242V39.3477C73.8855 38.6028 73.2827 38 72.5378 38Z" fill="#FFDF40"/>
<path d="M65.7097 64.2201C70.52 62.5224 73.8855 57.9767 73.8855 52.8242V39.3477C73.8855 38.6028 73.2827 38 72.5378 38H61.6667V74.5664H65.7097V64.2201Z" fill="#FFBE40"/>
<path d="M68.5498 48.3917C68.3906 47.9034 67.9694 47.548 67.4614 47.4744L64.2924 47.0137L62.875 44.1421C62.6486 43.6814 62.1578 43.4512 61.6669 43.4512C61.176 43.4512 60.6851 43.6814 60.4588 44.1421L59.0414 47.0137L55.8723 47.4744C55.3643 47.548 54.9432 47.9034 54.784 48.3917C54.626 48.8786 54.7576 49.4143 55.1248 49.7722L57.4187 52.0083L56.8778 55.1642C56.7909 55.6696 56.9989 56.1802 57.4134 56.4816C57.828 56.7843 58.3834 56.8238 58.8321 56.5843L61.6668 55.0957L64.5016 56.5842C64.949 56.8214 65.5027 56.7867 65.9204 56.4815C66.3349 56.1801 66.5429 55.6695 66.456 55.1641L65.9151 52.0082L68.2089 49.7721C68.5761 49.4143 68.7078 48.8786 68.5498 48.3917Z" fill="#FFBE40"/>
<path d="M65.9204 56.4816C66.3349 56.1802 66.5429 55.6696 66.456 55.1642L65.9151 52.0083L68.209 49.7722C68.5761 49.4143 68.7078 48.8786 68.5498 48.3917C68.3906 47.9034 67.9694 47.548 67.4615 47.4744L64.2924 47.0137L62.875 44.1421C62.6486 43.6814 62.1578 43.4512 61.6669 43.4512V55.0957L64.5017 56.5842C64.9489 56.8215 65.5027 56.7868 65.9204 56.4816Z" fill="#FB9333"/>
<path d="M72.448 78.6094H71.1003V74.5664C71.1003 73.8215 70.4976 73.2188 69.7527 73.2188H61.6667H53.5808C52.8359 73.2188 52.2332 73.8215 52.2332 74.5664V78.6094H50.8855C50.1406 78.6094 49.5378 79.2121 49.5378 79.957V82.6523C49.5378 83.3972 50.1406 84 50.8855 84H61.6667H72.448C73.1929 84 73.7957 83.3972 73.7957 82.6523V79.957C73.7957 79.2121 73.1929 78.6094 72.448 78.6094Z" fill="#FB9333"/>
<path d="M73.7957 82.6523V79.957C73.7957 79.2121 73.1929 78.6094 72.448 78.6094H71.1003V74.5664C71.1003 73.8215 70.4976 73.2188 69.7527 73.2188H61.6667V84H72.448C73.1929 84 73.7957 83.3972 73.7957 82.6523Z" fill="#FB9333"/>
<path d="M64.3621 77.2617H61.6667H58.9714C58.2265 77.2617 57.6238 77.8645 57.6238 78.6094C57.6238 79.3543 58.2265 79.957 58.9714 79.957H61.6667H64.3621C65.107 79.957 65.7097 79.3543 65.7097 78.6094C65.7097 77.8645 65.107 77.2617 64.3621 77.2617Z" fill="white"/>
<path d="M65.7097 78.6094C65.7097 77.8645 65.107 77.2617 64.3621 77.2617H61.6667V79.957H64.3621C65.107 79.957 65.7097 79.3543 65.7097 78.6094Z" fill="white"/>
</g>
<defs>
<clipPath id="clip0_319_41533">
<rect width="46" height="46" fill="white" transform="translate(38.6667 38)"/>
</clipPath>
</defs>
</svg>
