<svg width="123" height="123" viewBox="0 0 123 123" fill="none" xmlns="http://www.w3.org/2000/svg">
<rect x="11.3333" y="11" width="100" height="100" rx="20" fill="#FFE8C8"/>
<rect x="26.2152" width="100" height="100" rx="20" transform="rotate(15 26.2152 0)" fill="#FFE8C8" fill-opacity="0.5"/>
<g clip-path="url(#clip0_319_41539)">
<path d="M59.3435 54.8914H56.5669V57.668H59.3435C60.1103 57.668 60.7319 57.0464 60.7319 56.2797C60.7319 55.513 60.1103 54.8914 59.3435 54.8914Z" fill="#FFB35C"/>
<path d="M59.3435 64.6097H56.5669V67.3863H59.3435C60.1103 67.3863 60.7319 66.7647 60.7319 65.998C60.7319 65.2313 60.1103 64.6097 59.3435 64.6097Z" fill="#FFB35C"/>
<path d="M57.9551 65.998C57.9551 65.2313 57.3335 64.6097 56.5668 64.6097H55.78V57.668H56.5668C57.3335 57.668 57.9551 57.0464 57.9551 56.2797C57.9551 55.5129 57.3335 54.8913 56.5668 54.8913H55.78V51.328C55.78 50.5612 55.1584 49.9396 54.3917 49.9396C53.625 49.9396 53.0034 50.5612 53.0034 51.328V54.8913H46.0617V51.328C46.0617 50.5612 45.4401 49.9396 44.6734 49.9396C43.9067 49.9396 43.2851 50.5612 43.2851 51.328V54.8913H39.7217C38.955 54.8913 38.3334 55.5129 38.3334 56.2797C38.3334 57.0464 38.955 57.668 39.7217 57.668H43.2851V64.6097H39.7217C38.955 64.6097 38.3334 65.2313 38.3334 65.998C38.3334 66.7647 38.955 67.3863 39.7217 67.3863H43.2851V70.9497C43.2851 71.7164 43.9067 72.338 44.6734 72.338C45.4401 72.338 46.0617 71.7164 46.0617 70.9497V67.3863H53.0034V70.9497C53.0034 71.7164 53.625 72.338 54.3917 72.338C55.1584 72.338 55.78 71.7164 55.78 70.9497V67.3863H56.5668C57.3335 67.3863 57.9551 66.7647 57.9551 65.998ZM53.0034 64.6097H46.0617V57.668H53.0034V64.6097Z" fill="#FFAC37"/>
<path d="M80.1684 75.67V42.165C80.1684 39.8647 78.3037 38 76.0034 38H63.5084C61.2081 38 59.3434 39.8647 59.3434 42.165C59.3434 44.4653 61.2081 46.33 63.5084 46.33V75.67C61.2081 75.67 59.3434 77.5347 59.3434 79.835C59.3434 82.1353 61.2081 84 63.5084 84H80.1684C82.4687 84 84.3334 82.1353 84.3334 79.835C84.3334 77.5347 82.4687 75.67 80.1684 75.67Z" fill="#FFAC37"/>
<path d="M74.6149 78.5855V42.3038C74.6149 41.5371 73.9933 40.9155 73.2265 40.9155H63.5082C62.7415 40.9155 62.1199 41.5371 62.1199 42.3038C62.1199 43.0705 62.7415 43.6921 63.5082 43.6921H66.2849V78.5855H63.5082C62.7415 78.5855 62.1199 79.2071 62.1199 79.9738C62.1199 80.7405 62.7415 81.3621 63.5082 81.3621H77.3915C75.8581 81.3621 74.6149 80.119 74.6149 78.5855Z" fill="#FFBE40"/>
</g>
<defs>
<clipPath id="clip0_319_41539">
<rect width="46" height="46" fill="white" transform="translate(38.3334 38)"/>
</clipPath>
</defs>
</svg>
